<?xml version="1.0" standalone="no"?>
<!DOCTYPE svg PUBLIC "-//W3C//DTD SVG 20010904//EN"
 "http://www.w3.org/TR/2001/REC-SVG-20010904/DTD/svg10.dtd">
<svg version="1.0" xmlns="http://www.w3.org/2000/svg"
 width="512.000000pt" height="512.000000pt" viewBox="0 0 512.000000 512.000000"
 preserveAspectRatio="xMidYMid meet">

<g transform="translate(0.000000,512.000000) scale(0.100000,-0.100000)"
fill="#000000" stroke="none">
<path d="M2520 5109 c-52 -5 -150 -21 -216 -34 -456 -92 -850 -299 -1183 -620
-285 -275 -503 -628 -615 -997 l-33 -110 -65 -22 c-238 -80 -408 -315 -408
-566 0 -251 170 -486 408 -566 l65 -22 34 -111 c146 -483 478 -938 899 -1232
50 -35 100 -69 109 -75 17 -9 14 -29 -45 -336 -57 -293 -62 -329 -50 -357 26
-65 -57 -61 1340 -61 1397 0 1314 -4 1340 61 12 28 7 63 -50 356 -34 178 -61
325 -59 327 2 2 39 26 82 55 116 78 262 198 354 294 73 75 83 89 83 121 0 67
-57 116 -117 101 -14 -3 -73 -51 -131 -106 -96 -91 -292 -249 -311 -249 -4 0
-19 60 -33 132 l-25 133 51 45 c250 219 402 410 521 655 351 723 217 1578
-339 2153 -675 699 -1755 777 -2531 183 -86 -65 -237 -213 -308 -301 -140
-174 -252 -376 -323 -585 -20 -60 -38 -111 -39 -113 -1 -1 -31 11 -66 27 -35
16 -90 36 -121 46 l-57 16 16 52 c48 164 154 386 262 548 645 972 1949 1259
2938 646 842 -523 1222 -1559 918 -2501 -19 -60 -35 -118 -35 -129 0 -10 15
-34 34 -53 40 -40 75 -44 123 -14 27 16 36 33 63 117 87 270 114 453 114 748
0 248 -14 365 -69 581 -170 663 -629 1229 -1240 1529 -225 110 -458 183 -700
220 -132 20 -452 28 -585 14z m530 -673 c91 -16 261 -63 272 -74 3 -4 -98
-254 -227 -556 l-233 -550 -97 1 -98 1 -224 553 c-123 304 -220 556 -215 561
11 11 188 56 272 67 41 6 86 13 100 15 54 10 369 -3 450 -18z m-792 -700 l224
-553 -68 -67 c-38 -36 -71 -66 -75 -66 -7 0 -1092 460 -1098 466 -7 6 74 143
139 236 82 118 268 304 388 388 92 65 238 150 257 150 6 0 110 -249 233 -554z
m1345 500 c265 -151 514 -405 649 -663 24 -45 41 -83 38 -86 -3 -2 -253 -104
-556 -226 l-551 -222 -69 68 -69 68 234 553 c129 303 237 552 241 552 3 0 40
-20 83 -44z m-1874 -1147 l535 -227 -1 -98 -1 -97 -552 -223 c-304 -123 -556
-222 -560 -219 -4 2 -15 34 -25 71 -17 65 -17 67 1 77 42 24 244 163 344 238
128 95 148 128 119 193 -13 28 -210 179 -369 281 -58 38 -107 70 -109 71 -4 3
24 110 40 151 6 16 13 21 26 16 10 -4 258 -109 552 -234z m2658 165 c8 -21 26
-95 40 -164 24 -111 27 -148 27 -325 1 -169 -3 -217 -22 -310 -31 -157 -65
-261 -83 -257 -8 1 -257 105 -553 231 l-540 229 1 98 1 97 343 139 c189 77
436 177 549 223 113 46 209 82 214 81 5 -1 16 -20 23 -42z m-3681 -119 c90
-30 146 -58 279 -138 116 -69 345 -226 345 -236 0 -11 -232 -170 -350 -241
-271 -163 -397 -191 -546 -121 -89 41 -147 99 -192 189 -35 72 -37 81 -37 171
0 87 3 102 32 163 40 85 97 147 172 186 107 58 185 65 297 27z m2188 -109
c105 -51 161 -144 161 -266 0 -85 -21 -142 -74 -203 -82 -92 -237 -121 -353
-64 -160 79 -215 278 -118 430 80 126 246 170 384 103z m-488 -614 l69 -69
-234 -551 c-129 -304 -237 -552 -240 -552 -18 0 -241 144 -315 202 -158 127
-326 329 -418 505 -24 45 -41 83 -38 86 6 5 1092 445 1101 446 4 1 38 -30 75
-67z m1872 -407 c8 -7 -72 -144 -134 -231 -83 -117 -205 -247 -307 -329 -89
-72 -324 -218 -341 -212 -6 2 -111 251 -234 553 l-223 550 68 70 68 69 550
-233 c302 -128 551 -235 553 -237z m-1201 -296 c123 -304 220 -556 215 -561
-15 -15 -204 -58 -326 -74 -163 -22 -376 -14 -541 20 -150 31 -231 59 -227 77
2 8 100 244 219 524 119 281 222 524 229 540 l12 30 98 -2 97 -1 224 -553z
m-2114 438 c71 -207 186 -416 324 -587 59 -73 183 -197 289 -290 l51 -45 -25
-132 c-14 -73 -29 -133 -32 -133 -16 0 -211 153 -293 230 -259 243 -485 604
-580 927 l-15 52 66 20 c37 11 90 32 117 45 28 13 52 25 55 25 3 1 22 -50 43
-112z m967 -1094 c522 -255 1132 -256 1657 -2 59 29 112 53 117 53 5 1 47
-192 92 -429 46 -237 86 -440 89 -452 l5 -23 -149 0 -149 0 -4 163 c-3 177
-12 208 -64 227 -15 6 -322 10 -773 10 -739 0 -749 0 -774 -20 -38 -30 -47
-77 -47 -237 l0 -143 -151 0 c-138 0 -150 1 -145 18 3 9 41 208 86 442 89 464
87 453 98 448 4 -2 54 -27 112 -55z m1450 -753 l0 -100 -620 0 -620 0 0 100 0
100 620 0 620 0 0 -100z"/>
<path d="M2711 2846 c-87 -48 -50 -186 49 -186 51 0 100 49 100 99 0 75 -83
124 -149 87z"/>
<path d="M4653 1668 c-42 -11 -63 -42 -63 -94 0 -58 37 -94 95 -94 59 0 95 36
95 95 0 71 -56 111 -127 93z"/>
</g>
</svg>
